<svg xmlns="http://www.w3.org/2000/svg" viewBox="0 0 24 24">
  <path d="M12.2 2.1c3.2.1 6.6 1.4 7.8 3.8 1 2.1.9 5.2.2 7.7-.8 2.7-3.3 5.5-6.1 6.1l-1.2 2.1c-.4.8-1.5.5-1.5-.4v-1.5c-4.1-.5-7.2-2.7-7.9-6.3-.5-2.4-.5-5.7.5-7.7 1.1-2.5 4.8-3.9 8.2-3.8Zm-3 5.3c-.5 0-1 .4-1.1.9-.2.9-.1 2.3.8 4 .9 1.8 2.3 3 3.2 3.4.5.2 1.1.1 1.4-.3l.6-.8c.3-.4.3-.9-.1-1.2l-1-.8c-.3-.2-.7-.2-1 .1l-.3.3c-.1.1-.3.1-.5 0-.4-.3-.8-.8-1.1-1.3-.3-.5-.5-1-.5-1.5 0-.2.1-.3.2-.4l.4-.2c.4-.2.5-.6.4-1l-.4-1.2c-.1-.4-.5-.7-1-.7Zm5.2 1.4c.8.3 1.3.9 1.4 1.8 0 .4.3.6.7.5.3 0 .5-.3.5-.7-.2-1.4-1-2.3-2.3-2.8-.4-.1-.7 0-.9.4-.1.3.1.7.6.8Zm.5-2.2c1.8.6 2.8 1.9 3 3.7 0 .4.3.6.7.6.4 0 .6-.3.6-.7-.2-2.4-1.6-4-3.9-4.8-.4-.1-.7.1-.9.4-.1.4.1.7.5.8Z"/>
</svg>
